# xmcd
#
# Track frame offsets: 
#        150
#        13187
#        27293
#        41989
#        53650
#        63841
#        78831
#        91813
#        105981
#        118692
#        130621
#        148008
#
# Disc length: 2179 seconds
#
# Revision: 1
# Processed by: cddbd v1.5.2PL0 Copyright (c) Steve Scherf et al.
# Submitted via: ExactAudioCopyFreeDBPlugin 1.0
#
DISCID=9308810c
DTITLE=Don Williams - Greatest Hits  Live - Disc Two
DYEAR=2002
DGENRE=Country
TTITLE0=I've Got A Winner In You
TTITLE1=It's Good TSee You
TTITLE2=Back In My Younger Days
TTITLE3=We're Att The Way
TTITLE4=Stay Young
TTITLE5=Till The Rivers All Run Dry
TTITLE6=Tn The Family
TTITLE7=Lay Down Beside Me
TTITLE8=True Love
TTITLE9=We Should Be Together
TTITLE10=I Believe In You
TTITLE11=I Recall A Gypsy Woman
EXTD=
EXTT0=
EXTT1=
EXTT2=
EXTT3=
EXTT4=
EXTT5=
EXTT6=
EXTT7=
EXTT8=
EXTT9=
EXTT10=
EXTT11=
PLAYORDER=
